<svg width="536" height="701" viewBox="0 0 536 701" fill="none" xmlns="http://www.w3.org/2000/svg">
<path fill-rule="evenodd" clip-rule="evenodd" d="M0.88055 0.754395L0.149414 698.893L181.062 700.06C181.062 700.06 190.911 698.631 186.224 683.506C182.214 670.585 159.003 583.831 156.187 521.608C153.055 452.592 166.199 392.59 188.03 368.478C190.322 365.947 182.099 359.716 177.947 359.868C172.169 358.81 170.193 357.997 157.841 350.68C145.493 343.363 121.813 302.998 117.317 278.598C112.826 254.192 111.222 194.877 139.338 175.103C146.933 171.475 165.708 178.77 165.708 178.77C165.708 178.77 168.262 179.463 170.837 178.033C173.413 176.609 185.656 155.537 202.336 150.932C219.016 146.322 238.064 141.215 272.662 150.196C278.287 153.939 284.387 156.792 284.387 156.792C284.387 156.792 292.184 159.128 296.839 151.663C301.493 144.199 299.256 136.73 301.967 130.417C304.679 124.109 318.789 84.1532 353.982 65.9511C355.859 65.6456 363.77 78.435 370.831 89.3966C395.16 127.176 394.958 169.385 394.958 169.385C395.318 197.921 395.002 213.93 395.002 213.93C395.002 213.93 405.412 226.272 409.652 230.779C413.897 235.286 421.285 287.688 389.142 335.539C356.999 383.39 290.52 390.205 282.92 391.946C275.324 393.686 276.007 400.256 277.065 402.771C278.194 405.444 286.232 414.404 299.768 425.643C313.305 436.883 328.774 449.28 332.735 449.084C337.449 448.854 339.823 448.467 347.385 447.621C372.211 444.85 427.979 426.658 455.806 401.467C480.441 379.167 534.071 326.302 535.659 230.048C537.241 133.794 485.739 54.0292 392.072 14.6733C366.275 3.83172 324.24 0.901716 324.24 0.901716" fill="white"/>
</svg>
